<svg width="93" height="53" viewBox="0 0 93 53" fill="none" xmlns="http://www.w3.org/2000/svg">
<path d="M82.5936 19.6654C85.2559 16.7748 83.6964 12.084 79.8333 11.3629L52.8469 6.32565C51.7041 6.11233 50.5227 6.31658 49.5178 6.9012V6.9012C44.9758 9.5437 47.3576 16.5058 52.5779 15.9045V15.9045C52.8725 15.8705 53.1709 15.8634 53.4667 15.8836L70.8216 17.0669V17.0669C72.2057 17.0561 72.8559 18.7733 71.8118 19.6819L60.8166 29.2509V29.2509C57.2143 32.9327 61.3074 38.8912 66.0366 36.8498L66.3185 36.7281C66.9309 36.4638 67.4809 36.0736 67.9328 35.583L82.5936 19.6654Z" fill="white"/>
<path d="M10.2533 33.0163C7.57515 35.8922 9.10896 40.5915 12.9681 41.3337L39.9264 46.5187C41.0681 46.7383 42.2506 46.5405 43.2586 45.9614V45.9614C47.815 43.3439 45.4714 36.3688 40.2479 36.9416V36.9416C39.9531 36.9739 39.6547 36.9793 39.3589 36.9575L22.0108 35.6792V35.6792C20.6267 35.6824 19.9859 33.9617 21.035 33.0588L32.0824 23.5502V23.5502C35.7049 19.8882 31.6445 13.9073 26.9041 15.9228L26.6216 16.0429C26.0077 16.3039 25.4556 16.691 25.001 17.1792L10.2533 33.0163Z" fill="white"/>
<path d="M54.3468 43.1868C55.0668 43.7931 56.1494 43.1595 55.9733 42.2348L54.5 34.5L54.1766 33.3534C54.0069 32.7517 53.3329 32.4515 52.7721 32.7278L47.2889 35.43C46.7353 35.7029 46.5637 36.4104 46.9309 36.9066V36.9066C46.9768 36.9686 47.0298 37.0251 47.0889 37.0749L54.3468 43.1868Z" fill="white"/>
<path d="M36.3343 16.8522C35.6039 15.365 36.2174 13.5673 37.7046 12.8369L40.6367 11.3969C42.1239 10.6665 43.9216 11.28 44.6519 12.7671L44.6753 12.8147L36.3577 16.8997L36.3343 16.8522Z" fill="white"/>
<path d="M36.3474 16.9021L44.6551 12.7766L53.9413 32.6622C54.8221 34.5484 54.109 36.7949 52.3016 37.8277L52.096 37.9451C50.1306 39.0682 47.6256 38.338 46.5715 36.3346L36.3474 16.9021Z" fill="white"/>
</svg>
